<?xml version="1.0" encoding="UTF-8"?>
<svg version="1.1" xmlns="http://www.w3.org/2000/svg" width="512" height="512">
<path d="M0 0 C1.70630139 1.67602055 3.43243013 3.32916294 5.16308594 4.97998047 C12.26417149 11.82542281 18.55687438 19.05454605 24.44238281 26.96728516 C25.28346957 28.09785336 26.13084357 29.22377968 26.98535156 30.34423828 C64.45402251 79.48104527 78.41788919 142.94072292 70.33837891 203.671875 C67.20361072 224.8524466 61.29031726 245.10003544 52.73339844 264.70263672 C52.4164502 265.43820801 52.09950195 266.1737793 51.77294922 266.93164062 C41.22957818 291.1721023 25.95477178 313.15273918 7.43603516 331.96923828 C5.7600146 333.67553967 4.10687222 335.40166841 2.45605469 337.13232422 C-4.38938765 344.23340978 -11.61851089 350.52611267 -19.53125 356.41162109 C-20.6618182 357.25270785 -21.78774452 358.10008185 -22.90820312 358.95458984 C-71.28663418 395.8449705 -134.20658467 410.3746928 -194.1105957 402.50512695 C-243.20070797 395.57024589 -289.05934811 374.31777094 -324.53320312 339.40527344 C-326.23950452 337.72925289 -327.96563326 336.0761105 -329.69628906 334.42529297 C-336.79737462 327.57985063 -343.09007751 320.35072739 -348.97558594 312.43798828 C-349.81667269 311.30742008 -350.6640467 310.18149376 -351.51855469 309.06103516 C-388.31411298 260.80695515 -402.59528691 198.46620736 -395.26660156 138.70263672 C-392.25812718 116.4830639 -386.22843033 95.23282518 -377.26660156 74.70263672 C-376.94965332 73.96706543 -376.63270508 73.23149414 -376.30615234 72.47363281 C-366.18665209 49.20770039 -351.65223173 27.44466936 -333.86767578 9.33447266 C-332.12318838 7.55646811 -330.40078994 5.75828331 -328.67675781 3.96044922 C-321.24366257 -3.71139434 -313.56542247 -10.69344058 -304.96972656 -17.03857422 C-303.30625225 -18.26805724 -301.66132605 -19.51952541 -300.01660156 -20.77392578 C-225.51242137 -76.68808809 -117.72435637 -79.56871548 0 0 Z " fill="#DC594E" transform="translate(418.2666015625,86.29736328125)"/>
<path d="M0 0 C19.51313618 16.33367949 32.71875946 37.64223749 35.875 63.1875 C36.48311036 72.71604617 36.25603437 82.27171476 36.125 91.8125 C36.10488921 94.38019429 36.0866466 96.94790391 36.0703125 99.515625 C36.02671599 105.73992411 35.9601724 111.96363804 35.875 118.1875 C36.82761719 118.16429687 37.78023437 118.14109375 38.76171875 118.1171875 C40.01597656 118.09914062 41.27023437 118.08109375 42.5625 118.0625 C43.80386719 118.03929687 45.04523438 118.01609375 46.32421875 117.9921875 C52.49178231 118.33143742 56.58940033 120.6985207 60.71875 125.1953125 C64.58619053 130.13906903 65.99563999 133.69135297 66.02890015 140.0236969 C66.03750061 141.24183578 66.04610107 142.45997467 66.05496216 143.71502686 C66.05939733 145.06726032 66.0636957 146.41949423 66.06787109 147.77172852 C66.07577403 149.19435323 66.0840431 150.61697594 66.09265137 152.03959656 C66.11885835 156.71518035 66.13418177 161.39077302 66.1484375 166.06640625 C66.1537985 167.67804406 66.15917601 169.28968181 66.16456985 170.9013195 C66.18620029 177.6088321 66.20493416 184.31634231 66.21619225 191.02388096 C66.23241183 200.623379 66.26553895 210.22247102 66.32259309 219.82181603 C66.36137165 226.57781551 66.3808345 233.33370679 66.38611281 240.0898146 C66.38975665 244.12115794 66.40167322 248.1520681 66.43421555 252.18329048 C66.46443468 255.98129028 66.47055945 259.77859799 66.45883179 263.57669258 C66.45861217 264.96415801 66.46682378 266.35165683 66.48448563 267.73900986 C66.60176313 277.48888361 65.47426384 285.3396273 58.5625 292.625 C51.98578123 296.4486737 46.36479651 297.63174854 38.89395142 297.58190918 C38.02437502 297.58800028 37.15479863 297.59409139 36.25887144 297.60036707 C33.36336376 297.61693238 30.46829896 297.61223053 27.57275391 297.60742188 C25.48929897 297.61476594 23.4058481 297.62335315 21.32240295 297.63308716 C15.67565498 297.65527586 10.02905306 297.65823516 4.38226748 297.65633965 C-0.33684283 297.65621983 -5.05592233 297.66478862 -9.77502406 297.67311716 C-20.91090941 297.69234161 -32.04671979 297.69523847 -43.18261719 297.68847656 C-54.65933823 297.68183579 -66.13573787 297.70470404 -77.61239374 297.74179029 C-87.4767674 297.77250645 -97.34103777 297.78384525 -107.20545828 297.77995348 C-113.09223403 297.77788804 -118.97875962 297.78333393 -124.86548996 297.80784607 C-130.40275401 297.83014216 -135.93949613 297.82821115 -141.47676277 297.80791855 C-143.50439549 297.80451365 -145.53206355 297.80957504 -147.55964851 297.82390213 C-168.64444977 297.96256387 -168.64444977 297.96256387 -176.74390221 290.7448349 C-181.25295544 285.86444905 -182.37202975 280.43188225 -182.39242554 273.9770813 C-182.40522049 272.1393515 -182.40522049 272.1393515 -182.41827393 270.26449585 C-182.41757501 268.91998278 -182.41665201 267.57546981 -182.41552734 266.23095703 C-182.42151651 264.80464325 -182.42832295 263.37833269 -182.43588257 261.95202637 C-182.45350935 258.08831394 -182.45823651 254.22469016 -182.45951414 250.36094141 C-182.46093807 247.9443422 -182.46521223 245.52776536 -182.47050858 243.11117172 C-182.48899717 234.67289555 -182.49718057 226.23468247 -182.49560547 217.79638672 C-182.49440407 209.94262316 -182.51550899 202.08913441 -182.5470928 194.23544037 C-182.57327999 187.48194629 -182.58397176 180.72854184 -182.58269465 173.9749974 C-182.58218577 169.94608441 -182.58782763 165.91741583 -182.60905075 161.88855362 C-182.62847481 158.09795328 -182.62852959 154.30782948 -182.61401749 150.51721191 C-182.61193349 149.13053564 -182.6166059 147.7438292 -182.6287384 146.35720444 C-182.70078169 137.5490286 -182.33273923 131.06358259 -176.37890625 124.1640625 C-175.54166016 123.49503906 -175.54166016 123.49503906 -174.6875 122.8125 C-173.85412109 122.12027344 -173.85412109 122.12027344 -173.00390625 121.4140625 C-168.31353211 118.35215506 -164.36873177 117.9586452 -158.8125 118.0625 C-157.55824219 118.08054688 -156.30398437 118.09859375 -155.01171875 118.1171875 C-154.05910156 118.14039063 -153.10648438 118.16359375 -152.125 118.1875 C-152.13610306 117.54508865 -152.14720612 116.90267731 -152.15864563 116.24079895 C-152.27086721 109.44151997 -152.34532789 102.6425114 -152.3996582 95.8425293 C-152.42451687 93.31833175 -152.45841615 90.79420393 -152.50219727 88.27026367 C-152.8826419 65.74346539 -150.89017181 45.77480597 -139.125 26.1875 C-138.77953125 25.61064453 -138.4340625 25.03378906 -138.078125 24.43945312 C-125.09690812 3.29653833 -104.26521997 -11.86151158 -80.125 -17.6875 C-51.56974369 -23.68714162 -23.25768134 -17.90158471 0 0 Z " fill="#FDEC32" transform="translate(314.125,111.8125)"/>
<path d="M0 0 C4.20038731 1.65542498 7.07558438 4.73720509 10.23374939 7.84519958 C10.85590019 8.45011909 11.478051 9.0550386 12.11905485 9.678289 C14.20521889 11.70958582 16.28418551 13.74808723 18.36303711 15.78686523 C19.85589257 17.24427268 21.3490227 18.70139883 22.84240723 20.15826416 C36.4659431 33.46384492 50.01588635 46.8450444 63.54782772 60.24369717 C73.54902354 70.14440154 83.58427992 80.00775077 93.66690439 89.82553142 C100.75658773 96.73518655 107.80361887 103.68659007 114.82097059 110.66968304 C119.0119926 114.83778773 123.21970731 118.98498309 127.47486687 123.08767509 C131.48078764 126.95156938 135.43117559 130.86470552 139.3458786 134.82092285 C140.78733257 136.25952841 142.24761528 137.67956135 143.72776222 139.07832527 C154.57473668 149.35896545 154.57473668 149.35896545 155.28369641 155.42896199 C155.12921922 160.44267525 154.06300074 165.13565304 152.62228119 169.92387402 C151.74200339 172.86075791 151.11328115 175.84627348 150.45703125 178.83984375 C149.92281419 180.8761095 149.37465116 182.90876834 148.8125 184.9375 C148.51206787 186.03376709 148.21163574 187.13003418 147.90209961 188.25952148 C145.00640377 198.50508488 141.29891341 208.26988879 137 218 C136.52675293 219.09465576 136.52675293 219.09465576 136.04394531 220.21142578 C125.50113026 244.4599004 110.22667069 266.44471994 91.70263672 285.26660156 C90.02661617 286.97290296 88.37347378 288.69903169 86.72265625 290.4296875 C79.87721391 297.53077306 72.64809067 303.82347595 64.73535156 309.70898438 C63.60478336 310.55007113 62.47885704 311.39744514 61.35839844 312.25195312 C16.34533587 346.57611322 -41.66699329 361.7343658 -97.78857422 357.17285156 C-99.31922686 357.05321124 -100.85290236 356.96894731 -102.38720703 356.91308594 C-103.55872314 356.84395996 -103.55872314 356.84395996 -104.75390625 356.7734375 C-105.44943604 356.74427246 -106.14496582 356.71510742 -106.86157227 356.68505859 C-109.9976189 355.68040659 -111.76159407 353.31671153 -114 351 C-115.13053822 349.86354146 -116.26305994 348.729054 -117.3971405 347.59613037 C-118.7077249 346.28252345 -120.01829641 344.96890368 -121.32885742 343.65527344 C-128.63448311 336.3333329 -135.94263723 329.01392137 -143.25223827 321.69594955 C-147.67200215 317.27094596 -152.09081825 312.84500408 -156.50756836 308.41699219 C-160.78402634 304.12970245 -165.06289292 299.84483048 -169.34346962 295.56165314 C-170.97548614 293.92778506 -172.60662045 292.29303527 -174.2368679 290.65740204 C-176.50871772 288.37833662 -178.78363347 286.10237573 -181.05932617 283.82714844 C-181.73623505 283.14664429 -182.41314392 282.46614014 -183.11056519 281.76501465 C-183.72873611 281.14821838 -184.34690704 280.53142212 -184.98381042 279.89593506 C-185.52117419 279.3576495 -186.05853796 278.81936394 -186.61218548 278.26476669 C-187.99554395 276.88892475 -187.99554395 276.88892475 -190 276 C-190 275.34 -190 274.68 -190 274 C-189.35279338 274.1619646 -188.70558676 274.3239292 -188.03876781 274.49080181 C-184.14514722 275.14324539 -180.31499772 275.14806962 -176.37971497 275.14717102 C-175.07919529 275.15268605 -175.07919529 275.15268605 -173.75240248 275.1583125 C-170.84770566 275.16932391 -167.94304463 275.17318885 -165.03833008 275.17700195 C-162.95532112 275.18326849 -160.87231327 275.18991546 -158.78930664 275.19691467 C-151.9493894 275.21793359 -145.10947198 275.22831454 -138.26953125 275.23828125 C-135.9130979 275.24232951 -133.55666466 275.24644646 -131.20023155 275.25063133 C-120.12960171 275.26967766 -109.05897851 275.28391028 -97.98833543 275.2922433 C-85.21636286 275.30201618 -72.44456358 275.32833952 -59.67265207 275.36874419 C-49.79561747 275.39891685 -39.91863251 275.41371325 -30.04155272 275.41702431 C-24.14469217 275.41937332 -18.24801687 275.42831475 -12.35120583 275.45348549 C-6.8017528 275.47679138 -1.25260668 275.48098916 4.29688263 275.47072411 C6.32935673 275.47022927 8.36184608 275.47653435 10.39427376 275.49028015 C26.60062738 276.04820759 26.60062738 276.04820759 40.4375 268.6875 C45.1358592 260.60632218 45.43757804 254.20556646 45.40405273 244.92993164 C45.40976132 243.50346849 45.41672746 242.07700991 45.42485046 240.65055847 C45.44274318 236.79098851 45.44162089 232.93164639 45.43590808 229.07204747 C45.4328106 225.84399237 45.43891488 222.61598068 45.44494683 219.38793176 C45.45897765 211.7697333 45.45744279 204.15164701 45.44604492 196.53344727 C45.43456468 188.68703314 45.44864093 180.84096086 45.4754414 172.99459177 C45.49762725 166.24531246 45.5042293 159.49614024 45.49836498 152.74682707 C45.49500113 148.72129752 45.49737223 144.69598707 45.51461601 140.67048836 C45.53012933 136.88395692 45.52608163 133.09793034 45.50731087 129.31141853 C45.50363706 127.92636204 45.50669813 126.54126777 45.51719666 125.15624619 C45.57190028 117.3392643 45.31575233 111.63965486 41 105 C35.61506132 99.75677024 30.06950857 97.66365606 22.625 97.3125 C21.37976563 97.24675781 20.13453125 97.18101562 18.8515625 97.11328125 C17.91054688 97.07589844 16.96953125 97.03851563 16 97 C15.99857498 96.35758865 15.99714996 95.71517731 15.99568176 95.05329895 C15.97570881 88.25346333 15.92086109 81.45449254 15.84741211 74.6550293 C15.82447955 72.1310043 15.80989574 69.60688696 15.80444336 67.08276367 C15.74986687 45.95326751 14.113227 26.98726673 3.76953125 8.25 C2.2893271 5.53139105 1.07025176 2.89791244 0 0 Z " fill="#C65046" transform="translate(334,133)"/>
<path d="M0 0 C14.48917258 11.19996386 23.69305589 25.15277945 27.3125 43.25 C27.3125 60.74 27.3125 78.23 27.3125 96.25 C-14.2675 96.25 -55.8475 96.25 -98.6875 96.25 C-98.6875 26.41627038 -98.6875 26.41627038 -80.4765625 7.94140625 C-58.58543717 -13.18322309 -25.55424769 -17.86661886 0 0 Z " fill="#C65046" transform="translate(291.6875,133.75)"/>
<path d="M0 0 C19.51313618 16.33367949 32.71875946 37.64223749 35.875 63.1875 C36.48311036 72.71604617 36.25603437 82.27171476 36.125 91.8125 C36.10488921 94.38019429 36.0866466 96.94790391 36.0703125 99.515625 C36.03015342 105.74028279 35.95179595 111.9627615 35.875 118.1875 C25.645 118.1875 15.415 118.1875 4.875 118.1875 C4.83632813 112.69222656 4.83632813 112.69222656 4.796875 107.0859375 C4.75834259 103.49471715 4.7132184 99.90363498 4.66748047 96.3125 C4.63944487 93.83763345 4.6181448 91.36268026 4.60400391 88.88769531 C4.71097047 69.64216062 4.71097047 69.64216062 -0.125 51.1875 C-0.40166504 50.49253418 -0.67833008 49.79756836 -0.96337891 49.08154297 C-8.00980499 32.97478545 -21.41528177 21.6531684 -37.4765625 15.25 C-53.43410586 9.54696045 -70.94880887 11.21216059 -86.1875 18.1875 C-100.50417676 25.73687359 -111.16674381 38.16668608 -117.125 53.1875 C-119.68058302 61.50167954 -120.58623427 69.28316222 -120.63671875 77.953125 C-120.65466995 79.11253601 -120.67262115 80.27194702 -120.69111633 81.4664917 C-120.74474819 85.12345885 -120.77896319 88.7802991 -120.8125 92.4375 C-120.84571467 94.9362154 -120.88020808 97.43491416 -120.91601562 99.93359375 C-121.00282382 106.01824268 -121.06329732 112.10233914 -121.125 118.1875 C-131.355 118.1875 -141.585 118.1875 -152.125 118.1875 C-152.24095305 110.73816042 -152.34013815 103.29205873 -152.3996582 95.8425293 C-152.42451687 93.31833175 -152.45841615 90.79420393 -152.50219727 88.27026367 C-152.8826419 65.74346539 -150.89017181 45.77480597 -139.125 26.1875 C-138.77953125 25.61064453 -138.4340625 25.03378906 -138.078125 24.43945312 C-125.09690812 3.29653833 -104.26521997 -11.86151158 -80.125 -17.6875 C-51.56974369 -23.68714162 -23.25768134 -17.90158471 0 0 Z " fill="#E5E5E6" transform="translate(314.125,111.8125)"/>
<path d="M0 0 C11.67482128 7.22255893 20.05974466 18.2028069 23.4921875 31.61328125 C25.26630676 47.43359839 23.81816962 61.27057351 13.9296875 74.046875 C5.08608905 84.6744709 -5.86767606 90.68178323 -19.5078125 92.61328125 C-35.57626019 93.69842317 -47.52212833 89.69969504 -59.7578125 79.36328125 C-64.47441938 74.9423864 -67.67535378 70.40211876 -70.5078125 64.61328125 C-71.1265625 63.47246094 -71.1265625 63.47246094 -71.7578125 62.30859375 C-76.835371 51.27195618 -76.48154374 35.64766973 -72.4453125 24.30078125 C-65.50179381 9.36346372 -53.66270048 0.60914622 -38.7421875 -5.5234375 C-25.41922394 -9.07944589 -11.84674235 -6.55076875 0 0 Z " fill="#FECA08" transform="translate(281.5078125,276.38671875)"/>
<path d="M0 0 C4.14842558 2.29573066 6.3281572 4.93865854 7.8125 9.4375 C8.61152278 14.4713435 8.61152278 14.4713435 7.8125 17.4375 C6.42578125 19.265625 6.42578125 19.265625 4.75 21.125 C1.74367207 24.7382392 1.48297748 26.96553236 1.875 31.625 C2.17306854 33.89777263 2.48618777 36.16861027 2.8125 38.4375 C3.01678933 40.87365032 3.20497603 43.31121868 3.375 45.75 C3.519375 47.626875 3.66375 49.50375 3.8125 51.4375 C-3.4475 51.4375 -10.7075 51.4375 -18.1875 51.4375 C-17.1875 41.8125 -17.1875 41.8125 -16.87109375 38.81396484 C-15.52253472 30.38838032 -15.52253472 30.38838032 -18.0625 22.75 C-18.76375 21.986875 -19.465 21.22375 -20.1875 20.4375 C-22.67719529 16.70295706 -22.81538681 13.76117629 -22.1875 9.4375 C-20.77350047 5.23783672 -18.60468719 2.39405597 -14.875 0 C-9.7070943 -2.53997067 -5.22595726 -2.23554838 0 0 Z " fill="#34484F" transform="translate(263.1875,294.5625)"/>
</svg>
